<svg xmlns="http://www.w3.org/2000/svg" width="1600" height="900" viewBox="0 0 1600 900">
  <defs>
    <linearGradient id="bg" x1="0" y1="0" x2="1" y2="1">
      <stop offset="0" stop-color="#0B4DB3"/>
      <stop offset="1" stop-color="#062C66"/>
    </linearGradient>
  </defs>
  <rect width="1600" height="900" fill="url(#bg)"/>
  <rect x="220" y="250" width="1160" height="420" rx="32" fill="#E8F1FF" opacity="0.12"/>
  <rect x="260" y="290" width="1080" height="340" rx="26" fill="#FFFFFF" opacity="0.10"/>
  <g opacity="0.55">
    <rect x="320" y="350" width="160" height="210" rx="18" fill="#FFFFFF" opacity="0.12"/>
    <rect x="520" y="350" width="160" height="210" rx="18" fill="#FFFFFF" opacity="0.12"/>
    <rect x="720" y="350" width="160" height="210" rx="18" fill="#FFFFFF" opacity="0.12"/>
    <rect x="920" y="350" width="160" height="210" rx="18" fill="#FFFFFF" opacity="0.12"/>
    <rect x="1120" y="350" width="160" height="210" rx="18" fill="#FFFFFF" opacity="0.12"/>
  </g>
  <path d="M0 780 C 320 740, 560 860, 900 820 C 1160 790, 1300 740, 1600 750 L1600 900 L0 900 Z" fill="#0B1220" opacity="0.35"/>
  <circle cx="340" cy="210" r="70" fill="#FFFFFF" opacity="0.07"/>
  <circle cx="400" cy="210" r="110" fill="#FFFFFF" opacity="0.05"/>
</svg>
