<svg xmlns="http://www.w3.org/2000/svg" width="1600" height="900" viewBox="0 0 1600 900">
  <defs>
    <linearGradient id="bg" x1="0" y1="0" x2="1" y2="1">
      <stop offset="0" stop-color="#0B4DB3"/>
      <stop offset="1" stop-color="#031B44"/>
    </linearGradient>
    <linearGradient id="runway" x1="0" y1="0" x2="0" y2="1">
      <stop offset="0" stop-color="#0F172A"/>
      <stop offset="1" stop-color="#1F2937"/>
    </linearGradient>
  </defs>
  <rect width="1600" height="900" fill="url(#bg)"/>
  <circle cx="1240" cy="240" r="140" fill="#FFFFFF" opacity="0.08"/>
  <circle cx="1320" cy="300" r="220" fill="#FFFFFF" opacity="0.05"/>
  <path d="M0 690 C 320 640, 560 820, 900 780 C 1160 750, 1300 640, 1600 650 L1600 900 L0 900 Z" fill="url(#runway)"/>
  <path d="M780 630 L820 560 L980 610 L960 640 Z" fill="#E8F1FF" opacity="0.9"/>
  <path d="M820 560 L860 520 L1100 550 L1080 575 Z" fill="#E8F1FF" opacity="0.85"/>
  <path d="M640 700 L980 655" stroke="#FFFFFF" stroke-width="10" opacity="0.14"/>
  <path d="M650 740 L990 695" stroke="#FFFFFF" stroke-width="10" opacity="0.10"/>
  <path d="M810 705 L870 697" stroke="#F5B301" stroke-width="10" opacity="0.9"/>
</svg>
