<svg xmlns="http://www.w3.org/2000/svg" width="1600" height="900" viewBox="0 0 1600 900">
  <defs>
    <linearGradient id="bg" x1="0" y1="0" x2="1" y2="1">
      <stop offset="0" stop-color="#031B44"/>
      <stop offset="1" stop-color="#0B4DB3"/>
    </linearGradient>
  </defs>
  <rect width="1600" height="900" fill="url(#bg)"/>
  <circle cx="1080" cy="250" r="210" fill="#FFFFFF" opacity="0.06"/>
  <circle cx="1080" cy="250" r="140" fill="#FFFFFF" opacity="0.08"/>

  <g opacity="0.8">
    <rect x="320" y="260" width="260" height="420" rx="26" fill="#FFFFFF" opacity="0.10"/>
    <rect x="360" y="310" width="180" height="20" rx="10" fill="#F5B301" opacity="0.9"/>
    <rect x="360" y="360" width="200" height="18" rx="9" fill="#FFFFFF" opacity="0.16"/>
    <rect x="360" y="395" width="170" height="18" rx="9" fill="#FFFFFF" opacity="0.14"/>
    <rect x="360" y="430" width="190" height="18" rx="9" fill="#FFFFFF" opacity="0.12"/>
    <rect x="360" y="465" width="150" height="18" rx="9" fill="#FFFFFF" opacity="0.12"/>
    <rect x="360" y="500" width="210" height="18" rx="9" fill="#FFFFFF" opacity="0.10"/>
  </g>

  <path d="M620 690 C 820 610, 980 760, 1160 700" stroke="#E8F1FF" stroke-width="10" opacity="0.25" fill="none"/>
  <path d="M710 620 L760 590 L880 620 L860 650 Z" fill="#E8F1FF" opacity="0.9"/>
</svg>
