<svg xmlns="http://www.w3.org/2000/svg" width="1600" height="900" viewBox="0 0 1600 900" role="img" aria-label="Light blue plane background 1">
  <defs>
    <linearGradient id="bg" x1="0" y1="0" x2="1" y2="1">
      <stop offset="0" stop-color="#dff3ff"/>
      <stop offset="0.55" stop-color="#bfe6ff"/>
      <stop offset="1" stop-color="#8cd0ff"/>
    </linearGradient>
    <radialGradient id="sun" cx="70%" cy="20%" r="60%">
      <stop offset="0" stop-color="#ffffff" stop-opacity="0.85"/>
      <stop offset="1" stop-color="#ffffff" stop-opacity="0"/>
    </radialGradient>
    <filter id="soft" x="-20%" y="-20%" width="140%" height="140%">
      <feGaussianBlur stdDeviation="18"/>
    </filter>
  </defs>

  <rect width="1600" height="900" fill="url(#bg)"/>
  <rect width="1600" height="900" fill="url(#sun)"/>

  <!-- clouds -->
  <g fill="#ffffff" opacity="0.65" filter="url(#soft)">
    <path d="M220 270c35-55 115-70 170-28 25-30 65-48 110-43 70 8 121 70 112 140H150c-25-40-10-95 70-109z"/>
    <path d="M980 210c35-55 115-70 170-28 25-30 65-48 110-43 70 8 121 70 112 140H910c-25-40-10-95 70-109z"/>
    <path d="M520 560c28-44 92-56 136-23 20-24 52-38 88-34 56 7 97 56 90 112H450c-20-32-8-76 56-88z"/>
  </g>

  <!-- stylized plane -->
  <g transform="translate(0,0) rotate(-10 800 520)" opacity="0.95">
    <path d="M230 560l610-70 390-220c34-19 72 23 44 54L980 530l170 140c18 14 8 43-15 43l-190 2-140 120c-10 9-24 12-37 9l-105-24-190 14c-18 1-31-16-26-33l35-118-210-54c-21-5-21-35 0-40z" fill="#0b3a6f"/>
    <path d="M530 660l38-140 65-7-32 120z" fill="#ffffff" opacity="0.85"/>
    <path d="M805 520l55 12-35 120-62-9z" fill="#ffffff" opacity="0.75"/>
  </g>

  <!-- subtle grain -->
  <rect width="1600" height="900" fill="#0b3a6f" opacity="0.04"/>
</svg>
