<svg xmlns="http://www.w3.org/2000/svg" width="1600" height="900" viewBox="0 0 1600 900" role="img" aria-label="Light blue plane background 3">
  <defs>
    <linearGradient id="bg" x1="1" y1="0" x2="0" y2="1">
      <stop offset="0" stop-color="#dff6ff"/>
      <stop offset="0.5" stop-color="#b7e7ff"/>
      <stop offset="1" stop-color="#7cc8ff"/>
    </linearGradient>
    <radialGradient id="spot" cx="25%" cy="30%" r="55%">
      <stop offset="0" stop-color="#ffffff" stop-opacity="0.75"/>
      <stop offset="1" stop-color="#ffffff" stop-opacity="0"/>
    </radialGradient>
    <filter id="soft" x="-20%" y="-20%" width="140%" height="140%">
      <feGaussianBlur stdDeviation="18"/>
    </filter>
  </defs>

  <rect width="1600" height="900" fill="url(#bg)"/>
  <rect width="1600" height="900" fill="url(#spot)"/>

  <!-- clouds -->
  <g fill="#ffffff" opacity="0.62" filter="url(#soft)">
    <path d="M980 140c34-52 110-65 164-26 24-28 61-44 102-39 66 8 114 67 105 132H910c-24-38-9-88 70-101z"/>
    <path d="M220 360c34-52 110-65 164-26 24-28 61-44 102-39 66 8 114 67 105 132H150c-24-38-9-88 70-101z"/>
    <path d="M620 640c26-42 84-54 124-22 18-22 46-34 76-30 48 6 83 48 77 96H560c-18-29-7-68 48-78z"/>
  </g>

  <!-- stylized plane (side climb) -->
  <g transform="translate(0,0) rotate(-22 820 520)" opacity="0.95">
    <path d="M260 600l680-80 310-180c34-20 72 23 44 54L1010 540l150 120c18 14 8 43-15 43l-180 2-125 108c-10 9-24 12-37 9l-95-22-210 16c-18 1-31-16-26-33l36-120-230-58c-21-5-21-35 0-40z" fill="#0b3a6f"/>
    <path d="M610 670l34-130 66-7-30 112z" fill="#ffffff" opacity="0.82"/>
  </g>

  <rect width="1600" height="900" fill="#0b3a6f" opacity="0.035"/>
</svg>
