<svg xmlns="http://www.w3.org/2000/svg" width="1600" height="900" viewBox="0 0 1600 900" role="img" aria-label="Light blue plane background 2">
  <defs>
    <linearGradient id="bg" x1="0" y1="0" x2="0" y2="1">
      <stop offset="0" stop-color="#e9f8ff"/>
      <stop offset="0.6" stop-color="#bfe8ff"/>
      <stop offset="1" stop-color="#99d7ff"/>
    </linearGradient>
    <linearGradient id="haze" x1="0" y1="0" x2="1" y2="0">
      <stop offset="0" stop-color="#ffffff" stop-opacity="0"/>
      <stop offset="0.55" stop-color="#ffffff" stop-opacity="0.55"/>
      <stop offset="1" stop-color="#ffffff" stop-opacity="0"/>
    </linearGradient>
    <filter id="soft" x="-20%" y="-20%" width="140%" height="140%">
      <feGaussianBlur stdDeviation="16"/>
    </filter>
  </defs>

  <rect width="1600" height="900" fill="url(#bg)"/>
  <rect width="1600" height="900" fill="url(#haze)"/>

  <!-- clouds -->
  <g fill="#ffffff" opacity="0.6" filter="url(#soft)">
    <path d="M260 190c34-50 108-62 160-25 24-28 61-44 102-39 64 8 110 65 102 129H190c-23-37-9-86 70-99z"/>
    <path d="M1080 320c34-50 108-62 160-25 24-28 61-44 102-39 64 8 110 65 102 129h-520c-23-37-9-86 70-99z"/>
    <path d="M420 710c28-40 87-50 129-20 19-22 48-34 79-30 50 6 86 49 80 99H360c-18-28-7-66 52-76z"/>
  </g>

  <!-- stylized plane (front view) -->
  <g transform="translate(800 520)" opacity="0.95">
    <path d="M0-260c22 0 40 18 40 40v220l170 120c18 12 6 40-16 37L40 126V260c0 22-18 40-40 40s-40-18-40-40V126l-154 31c-22 3-34-25-16-37L-40 0v-220c0-22 18-40 40-40z" fill="#0b3a6f"/>
    <path d="M-18-180h36v210h-36z" fill="#ffffff" opacity="0.8"/>
    <circle cx="0" cy="-220" r="18" fill="#ffffff" opacity="0.55"/>
  </g>

  <rect width="1600" height="900" fill="#0b3a6f" opacity="0.03"/>
</svg>
