<svg xmlns="http://www.w3.org/2000/svg" width="1200" height="800" viewBox="0 0 1200 800">
  <defs>
    <linearGradient id="bg" x1="0" y1="0" x2="1" y2="1">
      <stop offset="0" stop-color="#fbbf24"/>
      <stop offset="1" stop-color="#60a5fa"/>
    </linearGradient>
    <filter id="shadow" x="-20%" y="-20%" width="140%" height="140%">
      <feDropShadow dx="0" dy="18" stdDeviation="20" flood-color="#0b1220" flood-opacity="0.35"/>
    </filter>
  </defs>
  <rect width="1200" height="800" fill="url(#bg)"/>
  <circle cx="980" cy="210" r="210" fill="#ffffff" opacity="0.16"/>
  <circle cx="250" cy="650" r="260" fill="#ffffff" opacity="0.10"/>

  <g filter="url(#shadow)">
    <rect x="240" y="160" width="720" height="480" rx="52" fill="#0b1220" opacity="0.92"/>
  </g>

  <!-- croissant -->
  <g transform="translate(600 420)">
    <path d="M-290 40c40-180 240-290 360-190 40 34 65 82 60 130-6 66-70 120-150 120-80 0-110-52-160-60-55-9-130 30-170 0-25-18-20-50-0-0z" fill="#f59e0b" opacity="0.95"/>
    <path d="M-250 40c30-120 170-190 270-120 40 28 55 62 40 95-20 45-75 70-135 70-70 0-95-30-140-35-50-6-85 25-110 0-18-18-10-30 0-10z" fill="#fde68a" opacity="0.75"/>
    <path d="M250 40c-30-120-170-190-270-120-40 28-55 62-40 95 20 45 75 70 135 70 70 0 95-30 140-35 50-6 85 25 110 0 18-18 10-30 0-10z" fill="#fde68a" opacity="0.65"/>

    <!-- texture lines -->
    <g stroke="#92400e" stroke-opacity="0.25" stroke-width="14" stroke-linecap="round" fill="none">
      <path d="M-150 20c25-45 85-75 140-70"/>
      <path d="M-40 55c40-40 110-40 150 0"/>
      <path d="M70 20c35-35 85-55 135-50"/>
    </g>
  </g>

  <text x="600" y="690" text-anchor="middle" font-family="ui-sans-serif, system-ui, -apple-system, Segoe UI, Roboto" font-size="30" fill="#fff" opacity="0.95">Croissant</text>
</svg>
