<svg xmlns="http://www.w3.org/2000/svg" width="1200" height="800" viewBox="0 0 1200 800">
  <defs>
    <linearGradient id="bg" x1="0" y1="0" x2="1" y2="1">
      <stop offset="0" stop-color="#0ea5e9"/>
      <stop offset="1" stop-color="#6366f1"/>
    </linearGradient>
    <filter id="shadow" x="-20%" y="-20%" width="140%" height="140%">
      <feDropShadow dx="0" dy="18" stdDeviation="20" flood-color="#0b1220" flood-opacity="0.35"/>
    </filter>
  </defs>

  <rect width="1200" height="800" fill="url(#bg)"/>
  <circle cx="970" cy="190" r="190" fill="#ffffff" opacity="0.15"/>
  <circle cx="280" cy="650" r="260" fill="#ffffff" opacity="0.12"/>

  <g filter="url(#shadow)">
    <rect x="190" y="160" width="820" height="480" rx="44" fill="#0b1220" opacity="0.92"/>
    <rect x="230" y="210" width="740" height="280" rx="28" fill="#111827"/>
  </g>

  <g opacity="0.9">
    <path d="M430 300h340" stroke="#93c5fd" stroke-width="16" stroke-linecap="round"/>
    <path d="M430 360h280" stroke="#a5b4fc" stroke-width="16" stroke-linecap="round"/>
    <path d="M430 420h200" stroke="#bae6fd" stroke-width="16" stroke-linecap="round"/>
  </g>

  <g>
    <circle cx="360" cy="355" r="66" fill="#38bdf8" opacity="0.35"/>
    <path d="M333 360c24-44 57-64 78-54 20 10 20 53-10 94-30 41-71 56-92 42-20-14-1-38 24-82z" fill="#e0f2fe" opacity="0.9"/>
  </g>

  <text x="600" y="560" text-anchor="middle" font-family="ui-sans-serif, system-ui, -apple-system, Segoe UI, Roboto" font-size="36" fill="#e5e7eb" opacity="0.9">Image unavailable</text>
  <text x="600" y="602" text-anchor="middle" font-family="ui-sans-serif, system-ui, -apple-system, Segoe UI, Roboto" font-size="20" fill="#94a3b8" opacity="0.95">BIA Shop &amp; Dine</text>
</svg>
