<svg xmlns="http://www.w3.org/2000/svg" width="1200" height="800" viewBox="0 0 1200 800">
  <defs>
    <linearGradient id="bg" x1="0" y1="0" x2="1" y2="1">
      <stop offset="0" stop-color="#10b981"/>
      <stop offset="1" stop-color="#0ea5e9"/>
    </linearGradient>
    <filter id="shadow" x="-20%" y="-20%" width="140%" height="140%">
      <feDropShadow dx="0" dy="18" stdDeviation="20" flood-color="#0b1220" flood-opacity="0.35"/>
    </filter>
  </defs>

  <rect width="1200" height="800" fill="url(#bg)"/>
  <circle cx="980" cy="190" r="200" fill="#ffffff" opacity="0.18"/>
  <circle cx="260" cy="650" r="260" fill="#ffffff" opacity="0.12"/>

  <g filter="url(#shadow)">
    <rect x="210" y="150" width="780" height="500" rx="46" fill="#0b1220" opacity="0.92"/>
    <rect x="260" y="220" width="340" height="360" rx="28" fill="#111827"/>
    <rect x="620" y="220" width="320" height="360" rx="28" fill="#111827"/>
  </g>

  <!-- Tea box -->
  <g transform="translate(305 270)">
    <rect x="0" y="0" width="250" height="260" rx="28" fill="#16a34a"/>
    <rect x="0" y="0" width="250" height="70" rx="28" fill="#22c55e"/>
    <path d="M70 150c18-42 66-72 105-64 40 8 56 43 36 82-20 39-62 61-98 56-36-5-61-32-43-74z" fill="#dcfce7" opacity="0.9"/>
    <path d="M125 70v190" stroke="#052e16" stroke-width="10" opacity="0.25"/>
    <text x="125" y="225" text-anchor="middle" font-family="ui-sans-serif, system-ui, -apple-system, Segoe UI, Roboto" font-weight="800" font-size="30" fill="#052e16" opacity="0.28">CEYLON</text>
  </g>

  <!-- Cup -->
  <g transform="translate(690 310)">
    <path d="M40 70h180v80c0 72-58 130-130 130S40 222 40 150V70z" fill="#e2e8f0"/>
    <path d="M80 70h140v70c0 52-42 94-94 94s-94-42-94-94V70z" fill="#f8fafc"/>
    <path d="M220 115c55 0 80 30 80 70s-25 70-80 70" fill="none" stroke="#e2e8f0" stroke-width="22" stroke-linecap="round"/>
    <path d="M98 110c18 18 18 38 0 56" stroke="#0f172a" stroke-opacity="0.35" stroke-width="12" stroke-linecap="round" fill="none"/>
    <path d="M150 102c18 18 18 38 0 56" stroke="#0f172a" stroke-opacity="0.28" stroke-width="12" stroke-linecap="round" fill="none"/>
    <rect x="40" y="60" width="180" height="22" rx="11" fill="#cbd5e1"/>
  </g>

  <text x="600" y="690" text-anchor="middle" font-family="ui-sans-serif, system-ui, -apple-system, Segoe UI, Roboto" font-size="30" fill="#f8fafc" opacity="0.95">Ceylon Tea</text>
</svg>
